PathFileType  4	(X/Y/Z) C:\Users\antoi\Documents\MyRepositories\mobilecap\ResultsAnalysis
DataRate	CameraRate	NumFrames	NumMarkers	Units	OrigDataRate	OrigDataStartFrame	OrigNumFrames
100.0	100.0	6	55	mm	100.0	100	265
Frame#	Time	r_knee			r_shank_antsup			r_ankle			r_calc			r_5meta			r_toe			L_knee			L_shank_antsup			L_ankle			L_calc			L_5meta			L_toe			r_mknee			r_mankle			L_mknee			L_mankle			r_sh2			r_sh3			r_sh4			L_sh2			L_sh3			r_thigh1			r_thigh2			r_thigh3			r_thigh4			r_thigh5			L_thigh1			L_thigh2			L_thigh3			L_thigh4			r.ASIS			r.PSIS			L.ASIS			L.PSIS			C7			R_Shoulder			L_Shoulder			R_Sternum			L_Sternum			R_humerus			R_elbow_med			R_elbow_lat			R_forearm			R_wrist_radius			R_wrist_ulna			L_humerus			L_elbow_med			L_elbow_lat			L_forearm			L_wrist_radius			L_wrist_ulna			R_HJC			L_HJC			R_HJC_reg			L_HJC_reg			
		X1	Y1	Z1	X2	Y2	Z2	X3	Y3	Z3	X4	Y4	Z4	X5	Y5	Z5	X6	Y6	Z6	X7	Y7	Z7	X8	Y8	Z8	X9	Y9	Z9	X10	Y10	Z10	X11	Y11	Z11	X12	Y12	Z12	X13	Y13	Z13	X14	Y14	Z14	X15	Y15	Z15	X16	Y16	Z16	X17	Y17	Z17	X18	Y18	Z18	X19	Y19	Z19	X20	Y20	Z20	X21	Y21	Z21	X22	Y22	Z22	X23	Y23	Z23	X24	Y24	Z24	X25	Y25	Z25	X26	Y26	Z26	X27	Y27	Z27	X28	Y28	Z28	X29	Y29	Z29	X30	Y30	Z30	X31	Y31	Z31	X32	Y32	Z32	X33	Y33	Z33	X34	Y34	Z34	X35	Y35	Z35	X36	Y36	Z36	X37	Y37	Z37	X38	Y38	Z38	X39	Y39	Z39	X40	Y40	Z40	X41	Y41	Z41	X42	Y42	Z42	X43	Y43	Z43	X44	Y44	Z44	X45	Y45	Z45	X46	Y46	Z46	X47	Y47	Z47	X48	Y48	Z48	X49	Y49	Z49	X50	Y50	Z50	X51	Y51	Z51	X52	Y52	Z52	X53	Y53	Z53	X54	Y54	Z54	X55	Y55	Z55	

100	0.99000000	-206.77651	501.69020	-391.88635	-174.05430	433.86742	-402.79052	-250.75096	98.75543	-366.07529	-321.02986	63.83953	-394.18712	-144.60139	45.90548	-335.62984	-102.24636	70.03928	-396.09990	-215.96776	497.62583	-732.11323	-193.24105	410.27090	-741.50382	-254.88845	101.15675	-740.61179	-320.60497	62.52205	-698.90568	-151.11212	42.82279	-788.20188	-110.25067	62.95842	-732.44119	-209.95628	487.09059	-513.62442	-239.82112	104.87205	-444.34894	-212.94544	487.23602	-609.03382	-225.05126	100.27614	-664.67315	-198.38335	326.39535	-365.88995	-248.83761	452.38186	-371.50931	-270.04587	343.66965	-355.31788	-280.15604	422.10639	-745.96945	-283.34322	300.44149	-762.09821	-132.37326	820.97106	-387.47824	-137.48480	709.29445	-389.79929	-194.39062	687.05859	-360.24496	-244.47547	824.46685	-368.04237	-247.40799	707.41267	-369.47914	-164.02450	765.83546	-765.72142	-167.03968	628.09398	-747.82989	-277.03745	767.07234	-736.49868	-272.85980	626.74223	-726.36836	-114.12994	979.01189	-438.91973	-309.92028	1013.84565	-524.21483	-106.49270	958.82010	-691.90319	-313.53296	1009.31501	-620.95496	-328.03874	1419.16830	-584.25751	-230.18840	1389.79565	-403.86163	-256.82384	1389.33400	-763.69612	-188.92338	1399.91432	-563.03404	-184.96236	1403.02085	-604.74380	-209.74241	1247.80666	-350.45098	-267.10650	1042.13682	-404.60888	-243.48926	1052.69149	-337.94408	-162.40663	935.55072	-334.67426	-118.44212	806.15968	-342.14897	-141.14376	796.87756	-316.48151	-228.16123	1270.30320	-815.79145	-266.60877	1039.96226	-741.63232	-238.86647	1053.95435	-813.24903	-166.54430	964.49470	-799.22268	-119.99928	810.97022	-790.72812	-142.28151	804.55651	-814.19369	-192.28432	898.06009	-460.38631	-189.39248	886.36450	-666.50539	-182.23156	899.74886	-468.23512	-188.47837	891.91485	-635.51122	
101	1.00000000	-206.76808	501.69225	-391.90881	-174.06723	433.79458	-402.82092	-250.70592	98.72262	-366.02485	-321.03048	63.86139	-394.20409	-144.60581	45.90047	-335.62372	-102.25963	70.03170	-396.08136	-215.96094	497.63427	-732.09906	-193.24558	410.28319	-741.53258	-254.89108	101.16249	-740.60474	-320.60488	62.51018	-698.87495	-151.10985	42.83477	-788.18624	-110.24789	62.97480	-732.42020	-209.90195	486.99977	-513.60808	-239.81715	104.88768	-444.34349	-212.93929	487.23706	-609.03803	-225.04068	100.22916	-664.67357	-198.34877	326.48819	-365.89806	-248.71701	452.49598	-371.46948	-269.69563	343.29589	-355.11651	-280.16437	422.15893	-746.01927	-283.34538	300.44707	-762.05694	-132.35893	820.96829	-387.49321	-137.45071	709.31467	-389.83178	-194.37089	687.05088	-360.26300	-244.41980	824.42868	-367.98692	-247.35166	707.37280	-369.46880	-164.06400	765.84296	-765.75337	-167.03485	628.10603	-747.83250	-277.04131	767.07375	-736.50120	-272.86377	626.72985	-726.33726	-114.12779	979.01028	-438.96049	-309.90093	1013.82185	-524.19089	-106.48780	958.83327	-691.90526	-313.53835	1009.29472	-620.93981	-328.02641	1419.21516	-584.26604	-230.16736	1389.80195	-403.86296	-256.86337	1389.32056	-763.74987	-188.92042	1399.87925	-563.07046	-184.99476	1402.94389	-604.71652	-209.70487	1247.81050	-350.51689	-267.07881	1042.15842	-404.72580	-243.48491	1052.68674	-337.94362	-162.39163	935.58703	-334.67096	-118.44052	806.17163	-342.15967	-141.13562	796.88479	-316.49052	-228.21226	1270.28116	-815.79929	-266.64812	1039.90734	-741.59479	-238.89888	1053.92835	-813.25075	-166.58078	964.48340	-799.22334	-120.02989	810.94658	-790.71904	-142.31781	804.54443	-814.18719	-192.25428	898.04798	-460.39489	-189.38411	886.36516	-666.51500	-182.19238	899.75415	-468.25491	-188.48036	891.92822	-635.50365	
102	1.01000000	-206.74613	501.68468	-391.90168	-174.05720	433.75861	-402.82882	-250.68106	98.72240	-365.99252	-320.98913	63.88877	-394.17001	-144.59120	45.89917	-335.59800	-102.27903	70.01735	-396.05150	-215.95553	497.65094	-732.10868	-193.23424	410.27947	-741.51910	-254.89493	101.16801	-740.60141	-320.58770	62.53032	-698.86143	-151.10763	42.85521	-788.15056	-110.23967	62.98125	-732.40943	-209.88656	486.97676	-513.59825	-239.81213	104.90948	-444.33876	-212.93273	487.23756	-609.04211	-225.00150	100.23684	-664.65994	-198.38880	326.48345	-365.94122	-248.65279	452.54888	-371.44812	-269.73465	343.25966	-355.16614	-280.15475	422.11956	-745.97187	-283.34378	300.46224	-762.08085	-132.32017	820.96905	-387.49508	-137.41068	709.33906	-389.86530	-194.35604	687.01954	-360.26252	-244.38778	824.39494	-367.94704	-247.31060	707.35584	-369.46455	-164.11594	765.85216	-765.78724	-167.03369	628.12056	-747.82967	-277.04543	767.07938	-736.49966	-272.85063	626.71564	-726.29642	-114.10011	978.99282	-438.96351	-309.88962	1013.79098	-524.16446	-106.48309	958.84609	-691.90284	-313.57289	1009.32765	-620.98953	-328.02736	1419.22320	-584.25945	-230.16735	1389.77282	-403.85915	-256.90178	1389.30871	-763.83215	-188.96189	1399.84989	-563.12099	-185.00243	1402.93547	-604.73971	-209.66253	1247.81536	-350.49477	-267.06846	1042.06429	-404.76468	-243.47500	1052.68904	-337.95199	-162.36534	935.61074	-334.66888	-118.44185	806.19306	-342.16695	-141.13723	796.86504	-316.47240	-228.25244	1270.26434	-815.85010	-266.68804	1039.88287	-741.57439	-238.93210	1053.90391	-813.24765	-166.62759	964.45086	-799.21281	-120.06175	810.93592	-790.70406	-142.35988	804.53443	-814.16674	-192.24922	898.02951	-460.41647	-189.38285	886.38081	-666.53855	-182.11581	899.66405	-468.27398	-188.47786	891.95452	-635.51961	
103	1.02000000	-206.71413	501.65323	-391.88565	-174.01949	433.77212	-402.79524	-250.68771	98.71323	-365.99192	-320.96940	63.87901	-394.13270	-144.56428	45.91681	-335.55754	-102.28926	70.01187	-396.02909	-215.95932	497.66485	-732.11850	-193.20899	410.27077	-741.46961	-254.89590	101.17130	-740.60131	-320.56173	62.53466	-698.82891	-151.10542	42.87434	-788.13224	-110.23206	62.98606	-732.40019	-209.89246	486.99528	-513.59614	-239.81153	104.93059	-444.33748	-212.93196	487.23692	-609.04140	-224.95965	100.32760	-664.59904	-198.44190	326.39368	-365.98308	-248.68701	452.47889	-371.50080	-269.83863	343.29114	-355.24715	-280.13438	422.04230	-745.88051	-283.35205	300.46468	-762.12418	-132.26651	820.95977	-387.54365	-137.40569	709.33997	-389.86146	-194.33295	686.95798	-360.26042	-244.38032	824.38521	-367.96560	-247.31095	707.33855	-369.48953	-164.14334	765.85754	-765.81832	-167.03796	628.13150	-747.82701	-277.04936	767.09553	-736.50132	-272.83716	626.71921	-726.26780	-114.04497	979.00486	-438.92032	-309.86981	1013.71931	-524.08522	-106.47993	958.85976	-691.89568	-313.61067	1009.38701	-621.05903	-328.04489	1419.20022	-584.25711	-230.18421	1389.73382	-403.88272	-256.93192	1389.29726	-763.86759	-189.01137	1399.79090	-563.15522	-185.00316	1402.96093	-604.77689	-209.63913	1247.81977	-350.45622	-267.05575	1041.94221	-404.72759	-243.47057	1052.68946	-337.96544	-162.35036	935.57926	-334.65332	-118.44356	806.21491	-342.16470	-141.10812	796.87696	-316.47639	-228.29805	1270.26091	-815.92882	-266.70956	1039.88496	-741.55432	-238.96262	1053.88362	-813.24364	-166.67886	964.38184	-799.20014	-120.09029	810.92368	-790.68301	-142.39749	804.51990	-814.15340	-192.22258	898.01870	-460.41635	-189.36658	886.40124	-666.54034	-181.97196	899.45746	-468.29618	-188.42473	891.98431	-635.57162	
104	1.03000000	-206.69331	501.62422	-391.89403	-174.00729	433.75790	-402.74957	-250.72972	98.67994	-366.02275	-320.95088	63.85214	-394.11410	-144.56865	45.91192	-335.56726	-102.28755	70.02199	-396.02406	-215.96626	497.67963	-732.11321	-193.20467	410.28347	-741.47421	-254.89220	101.17150	-740.59639	-320.54373	62.50562	-698.76891	-151.10266	42.88352	-788.15109	-110.22629	62.99726	-732.39035	-209.89095	486.99521	-513.59742	-239.81172	104.94642	-444.34175	-212.93135	487.23562	-609.03656	-224.95135	100.38947	-664.56485	-198.42369	326.31636	-365.94733	-248.71507	452.39872	-371.54956	-269.95036	343.47930	-355.32341	-280.11410	422.00586	-745.82858	-283.35362	300.48246	-762.11450	-132.22416	820.94312	-387.58102	-137.43605	709.30980	-389.82115	-194.28832	686.91491	-360.27760	-244.36280	824.37969	-368.00123	-247.31981	707.29158	-369.51414	-164.13555	765.86061	-765.81902	-167.04511	628.13654	-747.82798	-277.05669	767.11372	-736.49348	-272.86466	626.73699	-726.26358	-114.00827	979.03441	-438.90012	-309.83808	1013.64405	-523.98995	-106.47600	958.87053	-691.89311	-313.61837	1009.39255	-621.06203	-328.05460	1419.18816	-584.25654	-230.19933	1389.72268	-403.91374	-256.96202	1389.28976	-763.84859	-189.04671	1399.75237	-563.17670	-185.01298	1402.94747	-604.75536	-209.62619	1247.83640	-350.48254	-267.03999	1041.85088	-404.69238	-243.47416	1052.68321	-337.96895	-162.34116	935.52904	-334.64033	-118.44112	806.21617	-342.13601	-141.05828	796.92041	-316.52966	-228.34453	1270.25414	-815.99643	-266.72944	1039.88191	-741.53851	-238.99076	1053.86948	-813.23899	-166.73474	964.31600	-799.18824	-120.10989	810.89766	-790.65377	-142.43435	804.49364	-814.14426	-192.16346	898.01153	-460.39486	-189.33975	886.40389	-666.51986	-181.85211	899.32220	-468.31265	-188.36700	891.99536	-635.60421	
105	1.04000000	-206.68805	501.62480	-391.92548	-174.01986	433.73166	-402.73199	-250.75893	98.66683	-366.05187	-320.94295	63.83946	-394.11316	-144.60064	45.86564	-335.62834	-102.28630	70.02907	-396.02622	-215.96652	497.69641	-732.10501	-193.22227	410.30437	-741.52465	-254.88768	101.16780	-740.58930	-320.54495	62.49962	-698.74977	-151.10097	42.87855	-788.19488	-110.22129	62.99798	-732.39029	-209.88683	486.98606	-513.59978	-239.80606	104.95163	-444.34781	-212.92880	487.23457	-609.03272	-224.99538	100.30312	-664.62748	-198.34496	326.34023	-365.88196	-248.66446	452.40713	-371.51850	-270.19057	343.83151	-355.50852	-280.10706	422.00599	-745.82193	-283.33302	300.54285	-762.04834	-132.19603	820.94526	-387.54243	-137.45110	709.28565	-389.80003	-194.25382	686.93172	-360.31451	-244.34355	824.37177	-368.02563	-247.29101	707.26391	-369.50936	-164.12194	765.85918	-765.80161	-167.05097	628.13493	-747.82810	-277.06299	767.12237	-736.47476	-272.89161	626.74795	-726.26656	-114.01110	979.02466	-438.92408	-309.81252	1013.66132	-523.99058	-106.46927	958.87125	-691.89840	-313.58467	1009.34458	-621.00889	-328.06518	1419.16596	-584.27634	-230.20097	1389.74091	-403.92419	-257.00212	1389.28031	-763.83725	-189.07203	1399.76597	-563.19921	-185.03196	1402.90830	-604.70948	-209.61254	1247.85972	-350.53518	-267.05373	1041.85108	-404.69757	-243.47410	1052.67483	-337.96927	-162.32827	935.55817	-334.65244	-118.41532	806.21683	-342.09234	-141.03377	796.90978	-316.57682	-228.37718	1270.20524	-815.99381	-266.78022	1039.87453	-741.58815	-239.01970	1053.85949	-813.23608	-166.78752	964.27915	-799.17718	-120.13043	810.86897	-790.62909	-142.47309	804.46245	-814.13486	-192.13491	898.00565	-460.38782	-189.32898	886.39165	-666.51270	-181.88052	899.42217	-468.29054	-188.38424	891.97934	-635.56467	
